# xmcd
#
# Track frame offsets:
#       150
#       20541
#       33870
#       49181
#       66763
#       85029
#       102800
#       120018
#       136623
#       154666
#       171854
#       187934
#       197924
#       216684
#       234938
#       249156
#       266044
#       280162
#
# Disc length: 3997 seconds
#
# Revision: 0
# Processed by: cddbd v1.5.1PL0 Copyright (c) Steve Scherf et al.
# Submitted via: WaveLab 4.01
#
DISCID=e90f9b12
DTITLE=Various Artist - Country Heat 2005
DYEAR=1900
DGENRE=
TTITLE0=Alan Jackson \ Remember When
TTITLE1=Brooks and Dunn \ That's What She Gets For Loving Me
TTITLE2=Carolyn Dawn Johnson \ Die Of A Broken Heart
TTITLE3=Lonestar \ Let's Be Us Again
TTITLE4=Kenny Chesney \ I Go Back
TTITLE5=Martina McBride \ How Far
TTITLE6=Aaron Lines \ Turn It Up (I Like The Sound Of That)
TTITLE7=Brad Paisley \ Little Moments
TTITLE8=Andy Griggs \ She Thinks She Needs Me
TTITLE9=Sara Evans \ Suds In The Bucket
TTITLE10=Phil Vassar \ In A Real Love
TTITLE11=Tracy Byrd \ Drinkin' Bone
TTITLE12=Diamond Rio \ We All Fall Down
TTITLE13=Clay Walker \ I Can't Sleep
TTITLE14=David Lee Murphy \ Loco
TTITLE15=Aaron Pritchett \ My Way
TTITLE16=George Canyon \ Good Day To Ride
TTITLE17=Paul Brandt \ Hope
EXTD=
EXTT0=
EXTT1=
EXTT2=
EXTT3=
EXTT4=
EXTT5=
EXTT6=
EXTT7=
EXTT8=
EXTT9=
EXTT10=
EXTT11=
EXTT12=
EXTT13=
EXTT14=
EXTT15=
EXTT16=
EXTT17=
PLAYORDER=
